<svg xmlns="http://www.w3.org/2000/svg" viewBox="0 0 1128.25 569.34"><defs><style>.cls-1{fill:#05784b;}.cls-2{fill:#a9b927;}</style></defs><g id="Layer_2" data-name="Layer 2"><g id="Layer_1-2" data-name="Layer 1"><path class="cls-1" d="M424.62,2.08a65.85,65.85,0,0,1-3.7,7.59A13,13,0,0,1,417.49,13c-14.8,11.32-30.25,21.7-45.86,31.86-27.65,18-55.31,36-82.31,55s-53,38.79-77.57,60.7c-14.87,13.26-29.16,27.1-41.86,42.5a213,213,0,0,0-27.54,42.27,95.12,95.12,0,0,0-9.25,30.57,83.58,83.58,0,0,0,5.42,40.43c3.9,10.14,9.59,19.29,15.66,28.21,16.27,23.9,36,44.65,58.09,63.16,13.74,11.51,28.28,22,42.67,32.61,37.07,27.42,74.75,54,112.16,81C377.47,528.72,388,536,398,544c4.26,3.38,8.33,7,12.41,10.58a16.16,16.16,0,0,1,4.57,6.62c.5,1.35,1,2.7,1.56,4,.33.77.42,1.28-.62,1.58-2.45.69-4.88,1.5-7.32,2.23a7,7,0,0,1-3.8.15c-11-2.92-22.11-5.74-32.61-10.34-13.38-5.86-26.49-12.33-39.55-18.88A1236.1,1236.1,0,0,1,107.23,394.24a180.46,180.46,0,0,1-35-37,135.45,135.45,0,0,1-22.14-52.59,100.87,100.87,0,0,1,.55-38.79c4.8-24.22,16.15-45.08,32.21-63.58,8.61-9.94,18.32-18.74,28.19-27.38,28.27-24.76,58.76-46.5,90.46-66.6C239.21,84.41,278.18,62.82,318,42.69Q350.37,26.33,382.81,10c7.53-3.79,15.59-6.1,23.71-8.2,1.55-.4,3.14-.68,4.64-1.18a13,13,0,0,1,8.24,0C421.07,1.19,422.77,1.59,424.62,2.08Z"/><path class="cls-2" d="M132.58,468.93a14,14,0,0,1-5.52-2.27c-10.24-7.4-20.08-15.32-29.63-23.59A436,436,0,0,1,56.1,402.39c-15.5-17.55-29.34-36.28-39.95-57.25A153.55,153.55,0,0,1,1.83,304.37,86.86,86.86,0,0,1,0,287.73c0-3.51,0-7,0-10.55.15-11.45,2.63-22.48,6.13-33.32C11.49,227.32,19.53,212.1,29,197.61a309.76,309.76,0,0,1,30.59-39,455.17,455.17,0,0,1,67.05-60.06,13.6,13.6,0,0,1,5.65-2.49c2.26-.43,3.19.56,2.67,2.8a17,17,0,0,1-2.62,5.35,123.8,123.8,0,0,1-13.43,16.85c-9.38,10-18.91,20-27.91,30.37-15.47,17.87-29.59,36.7-40.78,57.6A179.46,179.46,0,0,0,33.49,252,128.76,128.76,0,0,0,30,289.53,145.19,145.19,0,0,0,40.27,334.4c7.15,18.18,17,34.87,28.28,50.73a415.42,415.42,0,0,0,33.84,41c6.13,6.63,12.36,13.18,18.47,19.83a112.62,112.62,0,0,1,11.25,14.31,17.74,17.74,0,0,1,2.93,6C135.44,468.19,134.69,469,132.58,468.93Z"/><path class="cls-1" d="M992,327.54l56.78-59.32,58,57.51c.19-2,.38-3.57.46-5.13.22-4.23.62-8.44.62-12.69,0-28.53-.13-57.06.17-85.59a25,25,0,0,1,2.26-10.93,9.56,9.56,0,0,1,4-4.35,8.08,8.08,0,0,1,9.92,1.35,13,13,0,0,1,3.83,8.55c.06.72,0,1.44,0,2.16.05,42.91.28,85.83,0,128.74a20.49,20.49,0,0,1-3.13,10.65c-1.8,3-4.43,4-7.77,3.36a20.11,20.11,0,0,1-10.32-5.21q-22.62-21.28-44.3-43.52c-1.73-1.78-3.44-3.57-5.2-5.32-4.76-4.74-11.25-4.76-16,.08-11.31,11.63-22.58,23.3-34.25,34.59-4.25,4.11-8.59,8.13-12.87,12.21a16.84,16.84,0,0,1-5.68,3.49,13.18,13.18,0,0,1-17.92-11.89c-.22-7.83-.28-15.66-.29-23.49q-.06-49.87,0-99.74a39.68,39.68,0,0,1,.77-9.29c1.35-5.62,4.91-8.07,11-7.61,5.42.4,8.84,3.75,9.3,9.16.11,1.35.11,2.71.11,4.07q0,52.62,0,105.25v2.59Z"/><path class="cls-1" d="M752.73,274.23c5.2,0,10.39,0,15.59,0a36.19,36.19,0,0,1,6,.52c4.87.83,7.05,3.27,7.49,8.19a46.06,46.06,0,0,1-.09,7.43,83.35,83.35,0,0,1-7.84,30.43,68.07,68.07,0,0,1-20.63,25.15,88.59,88.59,0,0,1-44,17.38,68.42,68.42,0,0,1-41.62-8.38,87,87,0,0,1-34.26-33.68,69.55,69.55,0,0,1-8.63-40.39c.88-11.18,3.4-21.94,8.52-32,10.63-20.83,27.55-34.25,50-40.16,26-6.86,49.86-1.87,71,14.94a30.86,30.86,0,0,1,4.7,4.44c3,3.64,3.54,10.89,1.19,15a3.89,3.89,0,0,1-2.48,2.13c-5.6,1.08-11.19,1.1-15.46-3.26a49.73,49.73,0,0,0-24.62-13.61c-36.71-8.74-63.64,16.34-70.35,41-7.62,28,6.37,62.43,42,71.46,31.9,8.09,59.08-11.6,68.22-34.24.71-1.77,1.27-3.61,1.86-5.43a7.43,7.43,0,0,0,.34-1.87c.14-3.91.06-4-3.81-4H736.64a18.48,18.48,0,0,1-6.13-.94,8.46,8.46,0,0,1-6-7.09c0-.32-.13-.63-.16-1-.68-7.77,3-11.54,9.91-12.09,1-.07,1.92-.06,2.88-.06h15.59Z"/><path class="cls-1" d="M952.38,284.77c-.08,43.76-35.21,78.35-79.47,78.21s-78-35.27-77.95-78.49,35.48-78.7,78-78.5C917.18,206.21,952.46,241.11,952.38,284.77Zm-137-.14a57.77,57.77,0,0,0,57.77,58.07c32.86,0,58.2-25.23,58.16-57.92,0-32.91-25.17-58-58-58A57.49,57.49,0,0,0,815.42,284.63Z"/><path class="cls-1" d="M505.35,284.78q0-32.5,0-65a15.39,15.39,0,0,1,.43-4.27A11.48,11.48,0,0,1,516,207.14c.4,0,.8,0,1.2,0q47.5,0,95,0a11.83,11.83,0,0,1,7.78,2.63A11.44,11.44,0,0,1,613.24,230c-.79,0-1.6,0-2.4,0H531c-3,0-2.7-.37-2.7,2.65q0,21.35,0,42.68c0,3-.16,2.63,2.77,2.63,9,0,17.91,0,26.86,0a11.36,11.36,0,0,1,.71,22.71c-3.67.16-7.36.05-11,.05-5.84,0-11.68,0-17.52,0-1.73,0-1.78,0-1.78,1.68,0,11.83,0,23.66,0,35.49,0,1.18.25,1.83,1.58,1.66a11.77,11.77,0,0,1,1.68,0h79.64a17.07,17.07,0,0,1,5,.54,11.43,11.43,0,0,1-2.49,22.33c-.55,0-1.12,0-1.68,0H517.68a13.91,13.91,0,0,1-4.72-.67,11.39,11.39,0,0,1-7.6-10.37c-.06-1.76,0-3.52,0-5.28Z"/><path class="cls-1" d="M337.38,284.84q0-32.73,0-65.46a23.83,23.83,0,0,1,.53-5.71,8.71,8.71,0,0,1,8.31-7c7.65-.61,11.74,3,11.86,10.87.21,14.06.47,28.13.13,42.2a47,47,0,0,0,.15,8.13,6.81,6.81,0,0,0,5.8,6.15,44.75,44.75,0,0,0,7.4.58c5.67.24,11.35.25,17,.18a33.46,33.46,0,0,0,22.4-8.35c2.83-2.47,5.64-5,8.29-7.62l46.14-46.11a30.37,30.37,0,0,1,4.69-4.09c4.33-2.88,8.12-2.61,12,.82a15.05,15.05,0,0,1,2.56,2.85,7.94,7.94,0,0,1,.57,8.61,24.23,24.23,0,0,1-4.57,5.81c-17.94,18.36-36.31,36.27-55.86,52.92-2.66,2.26-2.29,5-2.61,7.79-.1.88.86,1.28,1.43,1.81q10,9.29,20.08,18.54c7.4,6.84,14.77,13.71,22.18,20.53,5.77,5.31,11,11.13,16.59,16.65.28.28.53.59.79.89,5.37,6.43,2.33,15-5.93,16.76a8.54,8.54,0,0,1-5.59-.73,15.75,15.75,0,0,1-4.46-3.21c-15-15.14-30.68-29.68-45.3-45.24-1.59-1.69-3.18-3.38-4.72-5.11-8.37-9.35-18.89-13.67-31.36-13.26-5.27.18-10.55.23-15.8.83a24.81,24.81,0,0,0-5.39,1.1,7.92,7.92,0,0,0-5.27,5.46,25.09,25.09,0,0,0-1,5.89c-.29,5.59-.34,11.19-.28,16.78q.14,12.94-.12,25.9a17.46,17.46,0,0,1-1,5.87,8.56,8.56,0,0,1-7,5.78,14,14,0,0,1-5.7-.21,8.48,8.48,0,0,1-6.47-6.4,19.91,19.91,0,0,1-.57-5.7V284.84Z"/></g></g></svg>