<svg xmlns="http://www.w3.org/2000/svg" viewBox="0 0 424.62 569.34"><defs><style>.cls-1{fill:#05784b;}.cls-2{fill:#a9b927;}</style></defs><g id="Layer_2" data-name="Layer 2"><g id="Layer_1-2" data-name="Layer 1"><path class="cls-1" d="M424.62,2.08a65.85,65.85,0,0,1-3.7,7.59A13,13,0,0,1,417.49,13c-14.8,11.32-30.25,21.7-45.86,31.86-27.65,18-55.31,36-82.31,55s-53,38.79-77.57,60.7c-14.87,13.26-29.16,27.1-41.86,42.5a213,213,0,0,0-27.54,42.27,95.12,95.12,0,0,0-9.25,30.57,83.58,83.58,0,0,0,5.42,40.43c3.9,10.14,9.59,19.29,15.66,28.21,16.27,23.9,36,44.65,58.09,63.16,13.74,11.51,28.28,22,42.67,32.61,37.07,27.42,74.75,54,112.16,81C377.47,528.72,388,536,398,544c4.26,3.38,8.33,7,12.41,10.58a16.16,16.16,0,0,1,4.57,6.62c.5,1.35,1,2.7,1.56,4,.33.77.42,1.28-.62,1.58-2.45.69-4.88,1.5-7.32,2.23a7,7,0,0,1-3.8.15c-11-2.92-22.11-5.74-32.61-10.34-13.38-5.86-26.49-12.33-39.55-18.88A1236.1,1236.1,0,0,1,107.23,394.24a180.46,180.46,0,0,1-35-37,135.45,135.45,0,0,1-22.14-52.59,100.87,100.87,0,0,1,.55-38.79c4.8-24.22,16.15-45.08,32.21-63.58,8.61-9.94,18.32-18.74,28.19-27.38,28.27-24.76,58.76-46.5,90.46-66.6C239.21,84.41,278.18,62.82,318,42.69Q350.37,26.33,382.81,10c7.53-3.79,15.59-6.1,23.71-8.2,1.55-.4,3.14-.68,4.64-1.18a13,13,0,0,1,8.24,0C421.07,1.19,422.77,1.59,424.62,2.08Z"/><path class="cls-2" d="M132.58,468.93a14,14,0,0,1-5.52-2.27c-10.24-7.4-20.08-15.32-29.63-23.59A436,436,0,0,1,56.1,402.39c-15.5-17.55-29.34-36.28-39.95-57.25A153.55,153.55,0,0,1,1.83,304.37,86.86,86.86,0,0,1,0,287.73c0-3.51,0-7,0-10.55.15-11.45,2.63-22.48,6.13-33.32C11.49,227.32,19.53,212.1,29,197.61a309.76,309.76,0,0,1,30.59-39,455.17,455.17,0,0,1,67.05-60.06,13.6,13.6,0,0,1,5.65-2.49c2.26-.43,3.19.56,2.67,2.8a17,17,0,0,1-2.62,5.35,123.8,123.8,0,0,1-13.43,16.85c-9.38,10-18.91,20-27.91,30.37-15.47,17.87-29.59,36.7-40.78,57.6A179.46,179.46,0,0,0,33.49,252,128.76,128.76,0,0,0,30,289.53,145.19,145.19,0,0,0,40.27,334.4c7.15,18.18,17,34.87,28.28,50.73a415.42,415.42,0,0,0,33.84,41c6.13,6.63,12.36,13.18,18.47,19.83a112.62,112.62,0,0,1,11.25,14.31,17.74,17.74,0,0,1,2.93,6C135.44,468.19,134.69,469,132.58,468.93Z"/></g></g></svg>